<?xml version="1.0" encoding="UTF-8"?> <svg xmlns="http://www.w3.org/2000/svg" id="Layer_1" viewBox="0 0 279 110"><defs><style>.cls-1{fill:#fff;}</style></defs><path class="cls-1" d="m119.25,75.78c0-1.31-.33-2.46-.99-3.45-.79-1.19-1.91-1.77-3.35-1.77-1.06,0-2.06.28-3,.83v6.91c1.52.94,2.81,1.4,3.9,1.4,2.29,0,3.42-1.31,3.42-3.93h.01Zm7.46,15.26h-4.65c-.94,0-1.77-.48-2.47-1.43l-7.68-10.24v8.24c0,1.69.99,2.57,2.98,2.63v.82h-9.48v-.82c1.15,0,1.93-.2,2.33-.59.4-.37.61-1.06.61-2.06v-14.38c0-1-.2-1.68-.61-2.05-.4-.37-1.19-.55-2.33-.59v-.82h12.3c3.65,0,5.47,1.22,5.47,3.67,0,2.71-2.05,5.08-6.15,7.1l4.3,5.73c1.93,2.57,3.72,3.9,5.37,3.97v.82h.01Z"></path><path class="cls-1" d="m148.6,82.51l-3.53-8.84-4.07,8.84h7.6Zm8.99,8.53h-6.92v-.82h.45c.22,0,.33-.18.33-.55,0-.11-.03-.23-.08-.37l-2.33-5.77h-8.45c-.89,2.14-1.34,3.74-1.34,4.79,0,.57.22,1.03.64,1.37.42.34.98.51,1.65.51h1.03v.82h-8.66v-.82c1.46-.06,2.77-1.39,3.95-3.97l7.93-17.37h1.15l6.84,16.98c.48,1.2.92,2.09,1.34,2.69.75,1.08,1.59,1.63,2.52,1.66v.82l-.03.03Z"></path><path class="cls-1" d="m188.56,80.35c0-6.54-3.22-9.81-9.66-9.81-2.27,0-4.14.43-5.63,1.28v16.6c2.06,1.05,4.07,1.57,6.05,1.57,2.96,0,5.3-1,6.96-2.99,1.51-1.77,2.27-3.99,2.27-6.64v-.02Zm3.62-2.19c0,3.8-1.43,6.9-4.3,9.29-2.88,2.39-6.52,3.59-10.96,3.59h-10.14v-.82c1.15,0,1.93-.2,2.33-.59.4-.37.61-1.06.61-2.06v-14.38c0-1-.2-1.68-.61-2.05-.4-.37-1.18-.55-2.33-.59v-.82h15.21c6.79,0,10.2,2.8,10.2,8.39v.03Z"></path><path class="cls-1" d="m212.41,91.04h-9.44v-.82c1.15,0,1.93-.2,2.33-.59.4-.39.61-1.06.61-2.06v-14.38c0-1-.2-1.68-.61-2.05-.4-.37-1.19-.55-2.33-.59v-.82h9.44v.82c-1.17.01-1.95.22-2.35.59-.4.37-.61,1.05-.61,2.05v14.38c0,1.69.98,2.57,2.94,2.63v.82l.02.02Z"></path><path class="cls-1" d="m236.32,82.51l-3.53-8.84-4.07,8.84h7.6Zm8.99,8.53h-6.92v-.82h.45c.21,0,.33-.18.33-.55,0-.11-.03-.23-.08-.37l-2.33-5.77h-8.46c-.89,2.14-1.34,3.74-1.34,4.79,0,.57.21,1.03.64,1.37.42.34.98.51,1.65.51h1.02v.82h-8.66v-.82c1.46-.06,2.77-1.39,3.95-3.97l7.93-17.37h1.15l6.84,16.98c.48,1.2.92,2.09,1.34,2.69.75,1.08,1.58,1.63,2.52,1.66v.82l-.03.03Z"></path><path class="cls-1" d="m271.94,84.96l-1.66,6.87h-.93c0-.52-.3-.79-.83-.79h-13.96v-.82c1.15,0,1.93-.2,2.33-.59.4-.37.61-1.06.61-2.06v-14.37c0-1-.2-1.68-.61-2.05-.4-.37-1.18-.57-2.33-.59v-.82h9.49v.82c-1.17.02-1.96.22-2.36.57s-.61,1.05-.61,2.06v17h2.51c3.92,0,6.25-1.76,6.98-5.27h1.37v.02Z"></path><path class="cls-1" d="m112.5,107.33c-1.66,1.71-3.28,2.56-4.83,2.56-1.28,0-2.32-.42-3.13-1.26-.75-.79-1.13-1.71-1.13-2.77,0-1.32.53-2.49,1.6-3.51,1.11-1.05,2.47-1.57,4.07-1.57.95,0,1.97.2,3.09.62v2.43h-.82c-.02-.71-.3-1.31-.84-1.77-.53-.46-1.23-.71-2.1-.71-1.07,0-1.93.4-2.55,1.2-.55.68-.81,1.49-.81,2.42s.28,1.79.85,2.48c.65.79,1.54,1.19,2.66,1.19s2.44-.65,3.93-1.97v.68Z"></path><path class="cls-1" d="m127.39,105.9c0-.74-.2-1.46-.61-2.17-.42-.72-1-1.29-1.71-1.69-.61-.32-1.22-.49-1.84-.49-1.06,0-1.87.32-2.43.97-.49.57-.74,1.31-.74,2.2,0,1.05.39,2.02,1.17,2.88.85.95,1.9,1.43,3.13,1.43.96,0,1.73-.34,2.29-1,.49-.6.74-1.31.74-2.13Zm1.56-1.03c0,1.34-.55,2.49-1.65,3.5-1.13,1.02-2.5,1.54-4.12,1.54-1.45,0-2.59-.38-3.45-1.15-.81-.74-1.21-1.71-1.21-2.91,0-1.31.55-2.48,1.63-3.46,1.13-1.03,2.49-1.56,4.07-1.56,1.47,0,2.63.37,3.48,1.12.84.74,1.26,1.72,1.26,2.93h-.01Z"></path><path class="cls-1" d="m146.55,109.61h-3.98v-.46c.33,0,.48-.17.48-.46v-5.77c0-.72-.37-1.08-1.1-1.08-1.19,0-2.18.71-2.96,2.11-.62,1.15-.95,2.28-.95,3.39,0,.66.11,1.11.33,1.36.26.29.78.43,1.52.45v.46h-5.2v-.46c.64,0,1.09-.12,1.35-.34.26-.22.39-.59.39-1.11v-4.77c0-.62-.25-.92-.75-.92-.19,0-.51.08-.98.23v-.46l2.97-.99h.48v3.08c.81-.89,1.47-1.54,2.02-1.96.96-.75,1.86-1.12,2.69-1.12,1.28,0,1.93.68,1.93,2.03v4.9c0,.52.12.89.39,1.11.26.22.71.34,1.35.34v.46Z"></path><path class="cls-1" d="m159.61,106.99c0,.83-.46,1.52-1.35,2.09-.83.52-1.76.8-2.8.8-.81,0-1.76-.18-2.81-.55v-2.59h.76c.05.71.29,1.29.72,1.76.48.54,1.13.8,1.94.8.58,0,1.04-.14,1.43-.43.37-.29.57-.66.57-1.12s-.23-.88-.7-1.25c-.22-.17-.68-.45-1.41-.82-.92-.48-1.4-.72-1.47-.75-.62-.35-1.01-.68-1.21-.95-.19-.28-.29-.57-.29-.85,0-.72.42-1.31,1.24-1.76.71-.39,1.55-.57,2.49-.57.68,0,1.43.12,2.23.37v2.45h-.81c0-.6-.2-1.12-.59-1.56-.43-.49-1.01-.74-1.71-.74-.39,0-.72.11-.98.31-.25.22-.38.48-.38.8,0,.4.23.77.7,1.11.2.15.64.4,1.31.75,1.22.63,1.9.99,2.02,1.08.73.49,1.11,1.03,1.11,1.63v-.02Z"></path><path class="cls-1" d="m171.51,102.19h-2.8v5.99c0,.38.19.59.57.59s.94-.25,1.67-.75c.08-.06.16-.09.18-.12v.54c-1.29.95-2.33,1.43-3.09,1.43-.71,0-1.07-.45-1.07-1.36v-6.34h-1.75v-.43c.67,0,1.15-.11,1.43-.32.28-.22.42-.6.42-1.14v-1.4l2.35-.77v.49c-.48.09-.72.54-.72,1.32,0,.85.25,1.4.75,1.65.28.14.64.2,1.1.2h.95v.43Z"></path><path class="cls-1" d="m185.34,103.83h-.53c0-1.14-.26-1.71-.79-1.71-.65,0-1.17.69-1.55,2.08-.3,1.06-.45,2.08-.45,3.06,0,.79.12,1.29.37,1.56.23.22.66.32,1.32.32v.46h-3.95v-.46c.42,0,.74-.12.91-.34.17-.22.26-.59.26-1.11v-4.85c0-.55-.17-.82-.49-.82-.14,0-.36.06-.67.2v-.45l2.01-1h.35v3.03c.94-2.02,1.84-3.02,2.64-3.02.17,0,.37.05.59.14v2.88h0Z"></path><path class="cls-1" d="m202.7,108.88l-3.16,1.03h-.56v-3.11c-.83.92-1.49,1.59-2.02,1.99-.94.72-1.85,1.09-2.74,1.09-1.26,0-1.88-.72-1.88-2.19v-5.11c0-.54-.36-.82-1.06-.82-.16,0-.36.01-.64.06v-.45l3.92-.57v.37c-.33.08-.48.29-.48.65v5.81c0,.82.37,1.23,1.12,1.23,1.15,0,2.13-.69,2.92-2.09.65-1.15.98-2.26.98-3.33s-.4-1.66-1.21-1.66c-.14,0-.36.03-.65.08v-.45l3.98-.57v.37c-.35.05-.5.26-.5.65v6.01c0,.59.27.86.79.86.31,0,.72-.09,1.2-.28v.46-.03Z"></path><path class="cls-1" d="m217.45,107.33c-1.66,1.71-3.28,2.56-4.83,2.56-1.28,0-2.32-.42-3.13-1.26-.75-.79-1.14-1.71-1.14-2.77,0-1.32.53-2.49,1.6-3.51,1.12-1.05,2.47-1.57,4.08-1.57.94,0,1.97.2,3.09.62v2.43h-.83c-.01-.71-.29-1.31-.84-1.77-.53-.46-1.22-.71-2.1-.71-1.07,0-1.93.4-2.55,1.2-.55.68-.81,1.49-.81,2.42s.27,1.79.85,2.48c.65.79,1.54,1.19,2.66,1.19s2.44-.65,3.93-1.97v.68Z"></path><path class="cls-1" d="m229.59,102.19h-2.79v5.99c0,.38.18.59.57.59s.93-.25,1.66-.75c.08-.06.16-.09.19-.12v.54c-1.29.95-2.33,1.43-3.09,1.43-.72,0-1.07-.45-1.07-1.36v-6.34h-1.74v-.43c.67,0,1.15-.11,1.43-.32.28-.22.42-.6.42-1.14v-1.4l2.35-.77v.49c-.48.09-.72.54-.72,1.32,0,.85.25,1.4.74,1.65.28.14.64.2,1.11.2h.94v.43Z"></path><path class="cls-1" d="m238.81,97.78c0,.25-.11.46-.31.63-.21.17-.46.26-.78.26s-.56-.09-.76-.26c-.2-.17-.31-.38-.31-.63s.11-.45.31-.63c.2-.19.45-.26.75-.26s.57.09.79.26c.22.17.33.39.33.63h-.01Zm1.54,11.83h-5.24v-.46c.64,0,1.09-.12,1.35-.34.26-.22.38-.59.38-1.11v-5.11c0-.39-.28-.59-.82-.59-.2,0-.42.05-.66.12-.12.05-.21.08-.27.08v-.48l2.92-.94h.56v6.91c0,.52.12.89.39,1.11.27.22.72.34,1.35.34v.46h.03Z"></path><path class="cls-1" d="m254.82,105.9c0-.74-.2-1.46-.61-2.17-.42-.72-1-1.29-1.71-1.69-.61-.32-1.21-.49-1.83-.49-1.06,0-1.87.32-2.43.97-.49.57-.74,1.31-.74,2.2,0,1.05.38,2.02,1.17,2.88.85.95,1.9,1.43,3.12,1.43.96,0,1.73-.34,2.29-1,.5-.6.75-1.31.75-2.13Zm1.56-1.03c0,1.34-.55,2.49-1.65,3.5-1.14,1.02-2.51,1.54-4.12,1.54-1.45,0-2.6-.38-3.45-1.15-.81-.74-1.21-1.71-1.21-2.91,0-1.31.54-2.48,1.63-3.46,1.14-1.03,2.49-1.56,4.08-1.56,1.46,0,2.62.37,3.48,1.12.84.74,1.26,1.72,1.26,2.93h-.01Z"></path><path class="cls-1" d="m273.98,109.61h-3.98v-.46c.33,0,.48-.17.48-.46v-5.77c0-.72-.37-1.08-1.11-1.08-1.18,0-2.18.71-2.95,2.11-.63,1.15-.95,2.28-.95,3.39,0,.66.11,1.11.33,1.36.27.29.78.43,1.52.45v.46h-5.19v-.46c.64,0,1.09-.12,1.35-.34.26-.22.38-.59.38-1.11v-4.77c0-.62-.25-.92-.74-.92-.19,0-.51.08-.98.23v-.46l2.97-.99h.48v3.08c.81-.89,1.48-1.54,2.03-1.96.96-.75,1.86-1.12,2.69-1.12,1.27,0,1.93.68,1.93,2.03v4.9c0,.52.12.89.38,1.11.27.22.72.34,1.35.34v.46Z"></path><path class="cls-1" d="m139.74,0v42.81c0,10.41-9.19,17.17-20.74,17.17s-20.63-6.74-20.63-17.17v-13.6l8.41-3.85v17.45c0,11.95,8.17,13.98,12.22,13.98s12.22-2.02,12.22-13.98V3.85L139.74,0Z"></path><path class="cls-1" d="m167.77,42.62v2.02c0,.29-.22.59-.67.59h-14.8V3.85L160.83,0v42.04h6.28c.45,0,.67.3.67.59Z"></path><path class="cls-1" d="m189.54,56.11l-5.38,4.53-5.27-4.53,5.27-4.53,5.38,4.53Zm-16.71-4.53l5.38,4.53-5.38,4.53-5.28-4.53,5.28-4.53Zm4.47-6.36h-10.2c-.45,0-.66-.3-.66-.59v-2.02c0-.29.21-.59.66-.59h13.12c-.21-.48-.35-1.06-.35-1.63v-23.23l8.53-3.85v31.92h-2.91c-2.13,0-4.15-1.15-5.05-2.81l-3.14,2.81h0Z"></path><path class="cls-1" d="m235.83,30.28v14.95h-2.8c-2.34,0-4.26-1.15-5.16-2.81l-3.03,2.81h-28.81v-3.19h31.74c-.22-.48-.35-1.06-.35-1.63v-10.11c0-11.09-8.17-11.57-12.22-11.57h-15.7v-3.19h15.7c12.11,0,20.63,4.34,20.63,14.75h0Z"></path><polygon class="cls-1" points="245.93 3.85 254.45 0 254.45 45.23 245.93 45.23 245.93 3.85"></polygon><path class="cls-1" d="m279,13.31v29.41c0,9.46-7.29,16-17.38,17.17l-3.25-2.89c4.16,0,12.22-2.22,12.22-14.28v-25.54l8.41-3.85h0Z"></path><path class="cls-1" d="m43.42,45.69c5.43-.48,17.86-2.83,17.86-13.66,0-13.66-20.49-13.66-20.49-13.66h-16.47l19.09,27.32Zm20.66,64.23l-31.87-45.86h-11.74v45.86H0s0-64.06,0-64.06h19.43L0,18.37V0h40.8s40.97,0,40.97,32.03c0,19.46-15.07,27.16-26.96,30.15l33.27,47.74h-23.99Z"></path></svg> 